<svg id="レイヤー_1" data-name="レイヤー 1" xmlns="http://www.w3.org/2000/svg" xmlns:xlink="http://www.w3.org/1999/xlink" viewBox="0 0 1280 1024"><defs><style>.cls-1{fill:none;}.cls-2{clip-path:url(#clip-path);}</style><clipPath id="clip-path"><rect class="cls-1" x="419.44" y="367.25" width="519.41" height="172.3"/></clipPath></defs><g class="cls-2"><g class="cls-2"><path d="M896.72,456.28c-.11-.26-1-.54-1.18-.4a7.55,7.55,0,0,0-2.5,3.51c-.77,2.85-2,5.58-3,8.36a2,2,0,0,1-.2.3c-.56,1-1.11,1.92-1.66,2.89a6.31,6.31,0,0,1-.53.92,48.39,48.39,0,0,1-3.4,3.88,13.78,13.78,0,0,1-4.11,3.14,17.43,17.43,0,0,1-5.87.78,4.24,4.24,0,0,1-2.94-1.08c-1.41-1.57-2.87-3.24-3-5.58a3.54,3.54,0,0,0-.37-1.14c-1.48-3.41-1.48-7-1.25-10.61a1.66,1.66,0,0,1,.66-1.17,29.36,29.36,0,0,0,6.84-4.69,39.27,39.27,0,0,0,3.28-3.43c1.12-1.43,2-3.06,3.06-4.52,1.82-2.44,2.35-5.4,3.11-8.2a9,9,0,0,0-1.87-8.45,6.31,6.31,0,0,0-2.8-2.07,12.52,12.52,0,0,0-12.26,2.86c-2,1.88-4.07,3.88-5,6.68a10.61,10.61,0,0,1-.88,1.41,11.51,11.51,0,0,0-.86,1.81c-.93,2.76-1.82,5.52-2.73,8.28a1.75,1.75,0,0,1-.22.43,51.62,51.62,0,0,1-4.13,5.34,37.27,37.27,0,0,1-5.27,4c-.73.52-1.68.71-2.47,1.17-2.26,1.31-4.32.48-5-2a14,14,0,0,0-.9-2.33c-.43-.89-.94-1.74-1.42-2.6-.25-.46-.48-.92-.75-1.36-.92-1.49-1.88-3-2.74-4.47a2.3,2.3,0,0,1,0-1.38c.46-2.67,1-5.33,1.44-8,.35-2.17.57-4.36.91-6.52q.63-4,1.38-8c.29-1.52.69-3,1.06-4.53.25-1,.59-2,.79-3,.39-2,.7-3.92,1-5.88a1.07,1.07,0,0,0,0-.59c-.51-1-.55-2.52-1.88-2.89-1.82-.51-3.8-.84-5.43.4-2.5,1.9-3.35,4.84-4.23,7.67a51.4,51.4,0,0,0-1.07,5.28c-.46,2.18-1,4.35-1.41,6.54a40.38,40.38,0,0,1-.65,4,56,56,0,0,0-1.79,11.35,7.17,7.17,0,0,1-1,3.38,8.56,8.56,0,0,0-1.31,6.83,12.1,12.1,0,0,1,.31,4.61c-.66,2.94-1.76,5.78-2.7,8.65a7.49,7.49,0,0,1-.42.72c-.38.83-.7,1.69-1.1,2.51-1.06,2.24-2,4.53-3.25,6.68a27.78,27.78,0,0,1-3.36,4.58,19.07,19.07,0,0,1-3.26,2.65c-.23.18-.78,0-1.14-.09-1.72-.6-2.23-2-2.4-3.66-.64-6.25-.08-12.47.4-18.69.26-3.25,1-6.47,1.45-9.71a4.45,4.45,0,0,0-3.41-5.18c-.31-.09-.62-.15-.92-.25-1.51-.47-1.94-1.06-1.87-2.63,0-.44.14-.87.14-1.31,0-3.27.56-6.56-1.85-9.46-1.63-2-3.31-3.45-6-3.41a32.93,32.93,0,0,0-4.66.26,15.73,15.73,0,0,0-6.93,3.35,22.73,22.73,0,0,0-3.36,3.14,37.37,37.37,0,0,0-3.66,4.78c-1.12,1.8-2.39,3.57-2.78,5.75,0,.25-.31.46-.42.71a18.54,18.54,0,0,0-1.06,2.63c-1,3.67-1.81,7.36-2.73,11a9.37,9.37,0,0,1-.65,1.41c-.35.8-.7,1.6-1,2.41l-3.07,7.48s0,.06-.06.1c-1.12,1.9-2.21,3.82-3.37,5.69-1.68,2.71-3.42,5.39-5.14,8.07a2.73,2.73,0,0,1-.35.33c-1,1.09-2,2.21-3.1,3.26a21.75,21.75,0,0,1-3.46,3.2c-1.77,1.15-3.33,2.78-5.6,3-.26,0-.48.29-.73.4a8.06,8.06,0,0,1-2.4.95c-2.39.17-4.78.16-7.18.17-2.12,0-3.53-1.55-5.1-2.6-1.19-.81-1.87-2.34-3-3.37-1.8-1.7-2.48-4.06-3.24-6.17A48.26,48.26,0,0,1,717.46,474a101,101,0,0,1-.35-11,3.06,3.06,0,0,1,2.71-3.17,8.58,8.58,0,0,1,1.43-.16,9.85,9.85,0,0,0,5.12-1.47,2.75,2.75,0,0,1,1.25-.4c3-.22,5.2-2.17,7.68-3.43,2.8-1.42,5.2-3.63,7.77-5.5,3.46-2.52,6.09-5.85,8.78-9.11a20.84,20.84,0,0,0,2.22-3.21c1.13-2,2-4.25,3.22-6.23,1.86-3,2.29-6.4,3-9.65a13.51,13.51,0,0,0-3.55-12.58c-1.7-1.81-3.71-3.37-6.33-3.43-3.23-.08-6.47.05-9.7.17a5.76,5.76,0,0,0-2.3.59c-3.21,1.55-6.64,2.7-9.29,5.26-1.85,1.8-3.86,3.44-5.68,5.27a33.57,33.57,0,0,0-2.81,3.56,48.9,48.9,0,0,0-3.24,4.51c-1.12,1.9-2,3.95-3,5.94-.11.21-.27.4-.36.62-1.19,2.77-2.38,5.54-3.53,8.32a11.59,11.59,0,0,0-.38,1.88,4,4,0,0,1-.33,1.15c-1.36,2.37-1.55,5-1.86,7.62a13.1,13.1,0,0,1-2,6.34,1.38,1.38,0,0,1-2.1.51,28.61,28.61,0,0,0-3.35-1.28,11.86,11.86,0,0,1-2.38-1.05,40.6,40.6,0,0,1-4-3.13c-.76-.66-1.2-1.7-2-2.32a5.61,5.61,0,0,1-1.75-3.05,14.45,14.45,0,0,0-.67-2.05,9,9,0,0,1-.84-5.61,35.48,35.48,0,0,1,1.59-5.37,11.77,11.77,0,0,1,1.51-2.64,11.29,11.29,0,0,1,6.37-4.18,7.62,7.62,0,0,1,4.92-.17,15,15,0,0,0,2.81,1,7.73,7.73,0,0,0,2.91-.15.76.76,0,0,0,.34-1.39c-1.33-.94-2.69-2.19-4.19-2.45-5.52-1-10.83-.74-15.2,3.63-1.93,1.93-3.55,3.9-4,6.66a5.23,5.23,0,0,1-.34,1.15,10.58,10.58,0,0,0-.19,8.28,6.41,6.41,0,0,1,.59,2.32c0,2.34,1.5,4.12,2.7,5.74,1.47,2,3,4.24,5.61,5.21.24.09.41.37.64.52.83.52,1.65,1.05,2.5,1.52.45.24,1.06.23,1.45.53a8.85,8.85,0,0,0,4.49,1.5c2.28.3,2.55.62,2.71,2.95a4.72,4.72,0,0,1,0,.84c-.59,6.37,1.16,12.44,2.32,18.59a2.24,2.24,0,0,0,.21.68c1.1,2.06,2.26,4.09,3.31,6.18a19.22,19.22,0,0,0,5.28,6.34,19,19,0,0,0,7.91,4.24,12.86,12.86,0,0,1,1.37.44,18.94,18.94,0,0,0,13.25,0,25.37,25.37,0,0,0,6.29-2.81,40.54,40.54,0,0,0,4.07-2.85c2.09-1.95,4-4.07,5.94-6.19a24.32,24.32,0,0,0,2.47-3.33c1.08-1.7,2-3.49,3.09-5.2,1.63-2.63,3.37-5.19,4-8.3.21-1.08.9-1.39,1.9-1.43a1.45,1.45,0,0,1,1.68,1.3,12.87,12.87,0,0,0,2.3,5.16c2.29,3,5.4,4,8.81,4.72,1.87.37,3.35-.84,5-1.3,1.84-.51,2.88-2,4-3.23a11.86,11.86,0,0,0,3-5.13c.25-1.09,1.47-1.19,2.08-.23a8.18,8.18,0,0,1,.79,2c1,3.15.61,6.77,3.08,9.41a17.27,17.27,0,0,0,3.65,3.25,9.34,9.34,0,0,0,3.84.84,8.11,8.11,0,0,0,5.87-1.49,19.54,19.54,0,0,0,3-3.15,26,26,0,0,0,3.15-4.27c.73-1.38,1-3,2.33-4.07.5-.4.66-1.2,1-1.82h.59a14.85,14.85,0,0,1,.49,2.44c.07,2.07-.05,4.16,0,6.23a92.59,92.59,0,0,0,.66,10.29,55.66,55.66,0,0,0,2.44,9.37,21,21,0,0,0,2.61,4.68c1.43,2.19,3.82,3.32,6,4.53,1.22.69,3,.37,4.56.47a2.08,2.08,0,0,0,1.9-1.22,1.21,1.21,0,0,1,.58-.4,5.79,5.79,0,0,0,3.09-3.3,28.07,28.07,0,0,0,2.49-8.57c.56-6.37.53-12.78-1.25-19.05a25.09,25.09,0,0,1-.65-3.78,17,17,0,0,0-1.45-5.77c-1.13-2.25-.43-3.35,2-3.66s4.54-2,6.69-3.23c1.36-.78,2.51-1.93,3.85-2.74.84-.5,1.33-.09,1.41.9.24,3.23.55,6.45.7,9.68.12,2.72,2,4.75,2.61,7.27a.54.54,0,0,0,.22.28c1.34,1.06,1.93,2.71,3.34,3.83a15.44,15.44,0,0,0,7.35,3.6c1.69.24,3.43.09,5.15.16,2.7.12,4.6-1.89,7-2.61.1,0,.17-.16.25-.25,1.17-1.11,2.42-2.14,3.47-3.34a46.22,46.22,0,0,0,3.49-4.62,18.36,18.36,0,0,0,3.05-6c0-.07.1-.13.13-.2.41-1,.83-2,1.23-2.93a37.77,37.77,0,0,1,1.48-3.6,4.44,4.44,0,0,0,.17-3.92M867.63,453c.38-1.3.61-2.64,1-3.94.54-1.95,1.12-3.89,1.69-5.82.16-.54.36-1.06.51-1.6a22.13,22.13,0,0,1,4.4-8.2,2.34,2.34,0,0,1,2.9-.6,2.12,2.12,0,0,1,1.5,2.21v1.08a11.24,11.24,0,0,1-1.29,5.77,2.88,2.88,0,0,0-.4,1c-.38,2.49-2,4.38-3.18,6.49a18.59,18.59,0,0,1-2.9,3.28,8.37,8.37,0,0,1-1.23,1.29,3.71,3.71,0,0,1-1.75.77c-1.3.06-1.57-.48-1.21-1.73m-148.07-7.67a20.83,20.83,0,0,1,.91-2.84,3.26,3.26,0,0,0,.25-.54c.48-3.52,2.14-6.66,3.16-10a11.17,11.17,0,0,1,.92-1.91c.08-.17.27-.3.35-.48,1-2.1,2-4.21,3-6.31a7.49,7.49,0,0,1,.76-1.19,9.51,9.51,0,0,0,.89-1.12,21.45,21.45,0,0,1,4.34-5.76,29.6,29.6,0,0,1,3.2-3.14c2.46-1.74,5-3.37,8.16-3.7a12.16,12.16,0,0,1,7.22,1.11,7.35,7.35,0,0,1,1.72,1.9,7,7,0,0,1,1.83,5.6A14.15,14.15,0,0,1,755,424c-.31.59-.33,1.32-.58,1.94-.52,1.28-1.11,2.54-1.67,3.8-.23.55-.44,1.11-.7,1.64a17.74,17.74,0,0,1-1.08,2c-1,1.63-2.1,3.27-3.24,4.84a38.92,38.92,0,0,1-3,3.57c-1.26,1.36-2.58,2.66-3.92,3.94a18.41,18.41,0,0,1-2.2,1.83c-1.62,1.15-3.21,2.33-4.92,3.32-2.06,1.2-4.21,2.23-6.34,3.27a16.89,16.89,0,0,1-2.58.93c-1.26.38-2.56.64-3.79,1.09-.8.29-1.59.44-2.09-.22a3.5,3.5,0,0,1-.83-2.21c.35-2.81.88-5.59,1.42-8.37m78.28.91c-1.27.72-1.55,1.94-1.86,3.2-.27,1.08-.63,2.14-1,3.2a6.57,6.57,0,0,0-.42,1.25c-.31,3.78-1.79,7.25-2.89,10.82a20.11,20.11,0,0,1-.81,2.12c-.52,1.16-1,2.34-1.61,3.45a14.7,14.7,0,0,1-5.23,6,3.79,3.79,0,0,1-5.51-3.18c-.35-3.28-.47-6.59-.69-9.89l.32,0c.15-1.87.2-3.76.46-5.62a38.09,38.09,0,0,1,1-4.28c.31-1.15.63-2.3,1-3.43.44-1.31,1-2.59,1.45-3.89.07-.18.25-.34.28-.52a17,17,0,0,1,3.07-6.81c1.66-2.49,3.12-5.46,6.69-6a4.67,4.67,0,0,1,4.25,2.26c1.56,2.44,1.65,5,1.37,7.71a4.32,4.32,0,0,0,.49,1.83,1.28,1.28,0,0,1-.46,1.78m35.8,9.55c.28-.81,1.19-.93,1.54-.21a19.49,19.49,0,0,1,1.49,3.86c.28,1.11-.12,1.42-1.28,1.4a2.47,2.47,0,0,1-2.24-2.49,7.85,7.85,0,0,1,.49-2.56m8.72,43.39c-.23,1.52-.39,3-1.63,4.12a2.43,2.43,0,0,0-.46.7,2.76,2.76,0,0,1-3.46,1.43,1.33,1.33,0,0,1-.78-.5c-1.1-2-2.64-3.89-2.62-6.45a17.87,17.87,0,0,0-.64-4.27c-1.18-4.79-1.15-9.67-1.37-14.57q.51-6.75,1-13.5c.12-1.49.83-2.1,2.32-2.19a4.82,4.82,0,0,1,5.33,4.59,40.53,40.53,0,0,0,1.28,5.58,28.86,28.86,0,0,1,.74,4c.49,7,1.29,14,.25,21.07"/><path d="M611.32,424.47c2.45,0,3.92-.81,4.66-2.62.59-1.45.11-4.85-.8-5.72a6.88,6.88,0,0,0-9.63-.21,2.75,2.75,0,0,0-.64,1.35c-.95,3.42,2.92,7.73,6.41,7.2"/><path d="M688.73,456.39c-.85,2-1.61,4.07-2.37,6.12-1.05,2.81-2,5.68-3.16,8.42a56.13,56.13,0,0,1-3.54,6.33c-.63,1-1.61,1.85-2.22,2.89-.91,1.53-2.51,2-3.89,2.81s-2.33-.26-3.44-.92a8.48,8.48,0,0,1-3.36-3.9c-1.5-3.49-2.88-7.09-2.86-11,0-1.87.22-3.58,1.62-5a4.52,4.52,0,0,0,.73-1.09c1-1.85,2.08-3.71,3.13-5.57.09-.17.28-.28.39-.45a15.36,15.36,0,0,0,1.09-1.82c1-2.08,1.88-4.19,2.82-6.28.05-.11.14-.2.19-.3.53-1.15,1.07-2.29,1.57-3.44.21-.48.33-1,.52-1.46.52-1.33,1.07-2.64,1.58-4a13.52,13.52,0,0,1,.49-1.6c2-3.51,2-7.63,3.62-11.25a2.71,2.71,0,0,0,.13-.7,58.64,58.64,0,0,0,.17-14,5.72,5.72,0,0,0-1-2.52c-1.1-1.52-2-3.28-4.13-3.74-.18,0-.33-.22-.48-.34a4.2,4.2,0,0,0-5.09-.22,7.2,7.2,0,0,1-1.74.8,8.22,8.22,0,0,0-4.19,2.14c-1.67,1.85-3.67,3.43-5.11,5.43-1.28,1.78-2,4-2.93,6-.17.36-.4.7-.55,1.07-.41,1-.84,2-1.17,3.1-.42,1.41-.75,2.85-1.13,4.28-.31,1.19-.73,2.36-.94,3.57-.23,1.38-.29,2.78-.39,4.18-.48,6.33-1.44,12.64-.64,19,.46,3.65.53,7.36,1.14,11a10.69,10.69,0,0,1-.37,6.29c-.29.69-.54,1.4-.87,2.07a18.24,18.24,0,0,0-1.18,2c-.78,2.13-2.29,3.73-3.63,5.47a10.12,10.12,0,0,1-3.3,2.64,5.11,5.11,0,0,1-1.8.7c-1.89.22-3.22-1.16-4.15-2.33a12.42,12.42,0,0,1-3-6.07,14,14,0,0,0-.52-1.59c-.49-1.8-1.06-3.58-1.38-5.41s-.19-3.52,1.41-4.81a4.33,4.33,0,0,0,.79-1.19c1-1.69,1.9-3.38,2.86-5.06.16-.27.4-.5.57-.77q.51-.86,1-1.74c.44-.79.87-1.59,1.29-2.39.27-.49.56-1,.78-1.47,1-2.37,2-4.76,3-7.13.06-.15.17-.27.23-.42.49-1.12,1-2.23,1.45-3.36.36-.88.68-1.78,1-2.68s.7-1.78,1-2.69c.36-1.27.61-2.56,1-3.84.43-1.6,1-3.17,1.35-4.79s.34-3.27.67-4.87a23.26,23.26,0,0,0-.18-10.1c-.67-2.94-1.83-5.3-4.83-6.39a1.39,1.39,0,0,1-.59-.39c-1.1-1.27-2.53-1.19-3.87-.76a32.47,32.47,0,0,0-5.41,2.16,15.4,15.4,0,0,0-3.44,2.71,22.37,22.37,0,0,0-2.77,3.37,57.43,57.43,0,0,0-3.52,5.75,32.5,32.5,0,0,0-1.68,4.58c-.29.87-.52,1.76-.73,2.66-.38,1.63-.75,3.26-1.1,4.9a40.49,40.49,0,0,0-1,5.05,164.67,164.67,0,0,0,0,25.42,10.41,10.41,0,0,0,.69,3.63c1.41,2.85.22,5.2-1.36,7.3s-3.34,4.34-6.09,5.42c-1.81.7-3.57.38-4.47-1.39a14.15,14.15,0,0,1-1.73-8.2c.51-4.12,1.16-8.22,1.68-12.34a43.45,43.45,0,0,1,1.84-9.14c1-2.92.51-3.95-2.06-5.64-2.82-1.86-7.55-.06-8.27,3.29-1,4.63-2.45,9.2-2.42,14a10.74,10.74,0,0,1-.61,3c-.52,1.67-1.14,3.3-1.71,5a13,13,0,0,1-.43,1.24,74.56,74.56,0,0,0-3.43,7,23.51,23.51,0,0,1-5.55,8.09c-1.07,1.1-2.85,1.52-4.32,2.2a.88.88,0,0,1-.79-.13c-1.11-1.2-2.63-2.08-2.72-4a34.25,34.25,0,0,1,.83-10.24c.56-2.15.86-4.38,1.29-6.57.32-1.68.67-3.36,1-5,.31-1.44.7-2.87.93-4.32.4-2.45.6-4.93,1.07-7.36.89-4.66.33-8.93-2.58-12.88a10.24,10.24,0,0,0-4.14-3.09c-3.42-1.61-9.16-.3-11.8,2.39a21.15,21.15,0,0,0-2.22,2.33,47.89,47.89,0,0,0-2.78,4.4,60.85,60.85,0,0,0-3.24,6.2,51.35,51.35,0,0,0-2.48,7.36c-1.1,4.4-2,8.87-3,13.31-.15.67-.37,1.33-.56,2h-.51a13,13,0,0,1-.54-1.89c-.65-5.36-1.32-10.72-1.86-16.09-.34-3.29,1.93-5.89,2.64-8.92a33,33,0,0,1,1.33-3.3c.32-.86.5-1.77.79-2.64,1.11-3.35,2.53-6.64,3.31-10.07a52.24,52.24,0,0,0,1.4-11c0-3.76-.32-7.73-4.56-9.65a2.64,2.64,0,0,1-.29-.21,4.07,4.07,0,0,0-5.35,0,17,17,0,0,1-2.11,1.13c-.45.24-1,.4-1.31.78-1.16,1.65-2.85,3-3.16,5.15a2.52,2.52,0,0,1-.45,1.1,10.76,10.76,0,0,0-1.58,5.46c-.2,1.83-.36,3.66-.62,5.48a69.6,69.6,0,0,0-.45,15.67c.47,5.46.73,10.94,1.07,16.41a9.6,9.6,0,0,1-1.11,5.44,21.52,21.52,0,0,0-.9,2.71c-1,2.42-2,4.82-3,7.23a2.43,2.43,0,0,1-.14.2c-.46.82-.94,1.64-1.37,2.48-.93,1.84-1.84,3.69-2.77,5.52a5.58,5.58,0,0,1-.38.47l-1.3,1.95c-.22.34-.39.7-.63,1-1.21,1.57-2.41,3.15-3.67,4.67a33.62,33.62,0,0,1-3.26,3.58,29.55,29.55,0,0,1-4.43,3.39c-2,1.19-4,2.59-6.15,3-3.91.8-7.83,1.29-11.66-1.21-3.65-2.38-5.53-5.83-7.25-9.5a33.91,33.91,0,0,1-1.67-5.23,13.79,13.79,0,0,1-.62-3c-.21-4.31-.33-8.63-.45-12.95a10.48,10.48,0,0,1,.21-2.5c.36-1.73.74-2,2.49-2.15a22.55,22.55,0,0,0,6.47-1.55,43.25,43.25,0,0,0,6.75-2.89c1.87-1.12,3.81-2.12,5.67-3.24a21.18,21.18,0,0,0,2.8-2c1.11-.95,2.15-2,3.18-3,1.83-1.86,3.67-3.73,5.44-5.65a20.25,20.25,0,0,0,2.34-3c1.07-1.71,1.8-3.66,3.05-5.21a20.25,20.25,0,0,0,3.22-7.12,26.35,26.35,0,0,0,.35-14.34,7.44,7.44,0,0,0-1-1.87,12.34,12.34,0,0,0-5-4.34,5.61,5.61,0,0,0-2.3-.87c-3.5-.05-7,0-10.53.12a5.59,5.59,0,0,0-2.17.6c-2.11,1-4.15,2.18-6.28,3.14-2.87,1.29-4.93,3.6-7.22,5.59a32.27,32.27,0,0,0-4,4.7,40.44,40.44,0,0,0-3,4.17c-1.08,1.84-2,3.79-3,5.68-.16.31-.45.56-.64.86a6.68,6.68,0,0,0-.69,1.25c-1,2.87-2,5.75-3.06,8.63-.16.45-.44.85-.6,1.3a16.82,16.82,0,0,0-.68,2q-.72,3-1.37,6.07c-.31,1.44-.54,2.91-.85,4.35a15.72,15.72,0,0,1-.71,2.52,1.32,1.32,0,0,1-2,.74c-1.46-.55-2.95-1-4.42-1.49a5.37,5.37,0,0,1-1.44-.58c-1.39-1-2.72-2.06-4.09-3.1a13,13,0,0,1-4.76-7.38c-.94-4.05-1.51-8.41,1.24-12.25a3.86,3.86,0,0,0,.26-.54,8.72,8.72,0,0,1,5.09-4.69c.93-.35,1.87-.69,2.83-1a6.5,6.5,0,0,1,4.78.29,12.93,12.93,0,0,0,3.66,1.06,2.24,2.24,0,0,0,1.62-.89,1.53,1.53,0,0,0-.39-1.39c-1.52-1.07-3-2.29-5-2.29-1.24,0-2.48,0-3.72-.13-4.33-.3-7.7,1.69-10.63,4.56a7.9,7.9,0,0,0-2.68,4c-.07.31-.48.56-.72.84s-.71.6-.82,1a7.19,7.19,0,0,0-.3,2c0,3,0,6,.1,9a5,5,0,0,0,.86,2c.25.45.71.78.94,1.24a15.66,15.66,0,0,0,.69,1.78c1.94,2.7,3.71,5.59,6.87,7.14.31.15.54.47.85.65.73.44,1.47.88,2.24,1.26.42.22,1,.22,1.34.5a9.09,9.09,0,0,0,4.36,1.51c2.67.45,3.26,1.22,3.29,3.94s0,5.21.23,7.79a51.82,51.82,0,0,0,1.33,8.13,29.07,29.07,0,0,0,3.16,8.34,40.63,40.63,0,0,0,2.94,4.44c1,1.17,2.29,2,3.36,3.13a18.3,18.3,0,0,0,6,3.59A31.48,31.48,0,0,0,501,500.4a17.68,17.68,0,0,0,10.29-.08c2.74-.92,5.6-1.61,8-3.45,1.25-1,2.64-1.76,3.84-2.79,1.51-1.31,2.89-2.77,4.32-4.18a4,4,0,0,0,.44-.56c1.14-1.56,2.31-3.1,3.41-4.69s2.12-3,3-4.66c1.1-2,2-4,3.07-6a13,13,0,0,1,.75-1.08c.23-.37.6-.75.63-1.14a7.6,7.6,0,0,1,2.62-5c.6-.58,1-.53,1.23.19a8.19,8.19,0,0,1,.43,2.35,79.46,79.46,0,0,0,2.28,15,5.73,5.73,0,0,0,5.81,4.39c2-.2,2.82-1,3-3,0-.36.05-.72.1-1.08q1.37-8.94,2.75-17.87c.07-.47.3-.91.42-1.38.46-1.93.91-3.88,1.37-5.82.33-1.35.64-2.71,1-4,.29-1,.7-2,1-3q1.39-4.37,2.77-8.74a1.87,1.87,0,0,1,.17-.31c1.29-2.23,2.46-4.53,3.92-6.64,1.17-1.7,2.54-3.31,4.87-3.62s3.69.46,3.72,2.77c0,3.42-.25,6.86-.45,10.28a10.14,10.14,0,0,1-.5,1.72c-.43,1.74-.85,3.48-1.24,5.22a20.86,20.86,0,0,1-.91,4.08,16,16,0,0,0-1.19,5.46,28.3,28.3,0,0,1-.41,3.33,27.06,27.06,0,0,0,.29,13.64,11,11,0,0,0,2.66,4.14,5.67,5.67,0,0,0,2.39,1.91c3.3,1,6.61,1.68,10.1.39,1.9-.7,3.1-2.15,4.59-3.29a9,9,0,0,0,2-2.29c1.07-1.71,2-3.5,3-5.25.1-.17.27-.3.36-.47a24.21,24.21,0,0,0,1.13-2.21c.25-.63.28-1.33.5-2,.36-1,1-1.23,1.68-.43a18.22,18.22,0,0,1,2.16,3.54,9.86,9.86,0,0,0,6.19,5.58,16.15,16.15,0,0,0,8.2.13,6.2,6.2,0,0,0,2.23-1.06,14.32,14.32,0,0,0,4.08-4,4.48,4.48,0,0,1,1.45-1.23c1.13-.75,1.59-.57,2,.7a10.61,10.61,0,0,0,.86,2.47,40.12,40.12,0,0,0,3.47,4.8c2.28,2.63,4.9,4.81,8.59,5.13.36,0,.71.12,1.07.17a8.1,8.1,0,0,0,5.7-.87,13.18,13.18,0,0,0,5.08-5.28,6.35,6.35,0,0,1,.75-.91,4.24,4.24,0,0,0,.86-1.25,6.92,6.92,0,0,1,2.31-3.54c1.15-.95,1.56-.9,2.1.53a9.74,9.74,0,0,0,1,2.32c1.9,2.62,3.76,5.21,6.6,7.09a13.85,13.85,0,0,0,7.6,2,7.77,7.77,0,0,0,6.15-2.66,28.55,28.55,0,0,0,3-3.36c1.09-1.64,1.9-3.47,2.85-5.21.17-.31.46-.55.65-.85a10.72,10.72,0,0,0,.95-1.76c1-2.8,2-5.61,3-8.42.12-.33.39-.62.48-1,.46-1.64,1-3.28,1.26-5a3.4,3.4,0,0,0-.56-1.91.84.84,0,0,0-1.59,0m-198-3.3a26.48,26.48,0,0,1,.81-3.5,13.1,13.1,0,0,0,.6-1.94c.33-4,2-7.61,2.89-11.45a14.16,14.16,0,0,1,1.12-2.61c.08-.18.23-.33.3-.51.91-2.15,1.68-4.37,2.75-6.44,1.18-2.28,2.59-4.44,4-6.6a20.52,20.52,0,0,1,2.06-2.68c1.64-1.83,3.3-3.63,5-5.39,3.3-3.39,10.3-4.85,14.62-2.83a5.37,5.37,0,0,1,3.32,4c.23,1.45.6,2.88.86,4.11a59.08,59.08,0,0,1-1.39,8.15,41.09,41.09,0,0,1-3.33,7,47.55,47.55,0,0,1-3.08,4.95c-1.09,1.52-2.32,2.93-3.55,4.34a22.3,22.3,0,0,1-2.52,2.53c-2,1.68-4.11,3.24-6.1,4.94-2.23,1.9-4.93,2.95-7.43,4.37-2.91,1.66-6.21,1.76-9.19,3a1,1,0,0,1-1.47-.75,8.09,8.09,0,0,1-.25-2.58m59.68-36.42c.17-2.5,1.2-4.95,1.88-7.41.32-1.14,1.32-1,2.19-1a1.5,1.5,0,0,1,1.65,1.41c.17,1.38.19,2.79.27,4.18a26.24,26.24,0,0,1-1.34,7.9c-.54,1.61-.64,3.37-1.06,5-.28,1.11-.82,2.14-1.19,3.23s-.56,1.9-.79,2.86c-.17.7-.22,1.42-.42,2.11-.08.31-.4.54-.61.81-.26-.27-.62-.5-.75-.82a4.13,4.13,0,0,1-.27-1.52c.1-5.59.06-11.2.44-16.78m82,39.29c0-2,0-4,0-6h.15c.35-5.3.6-10.62,1.1-15.91a55.56,55.56,0,0,1,1.45-6.52c.27-1.21.42-2.45.71-3.65s.74-2.67,1.12-4a4.64,4.64,0,0,0,.3-.78c.36-3,1.85-5.58,3.12-8.2.82-1.69,2-3.47,4.17-3.93a2.22,2.22,0,0,1,2.21.83,7.52,7.52,0,0,1,2,6c-.09,1.63.06,3.29-.12,4.91a53.1,53.1,0,0,1-1,5.27c-.21,1-.64,2-.77,3a16.83,16.83,0,0,1-1.9,6.39,11.84,11.84,0,0,0-.51,1.84c-.46,1.3-1,2.59-1.45,3.88-.21.55-.42,1.11-.65,1.66-.52,1.23-1.06,2.46-1.59,3.68,0,.08-.1.13-.13.21-.92,2.14-1.82,4.28-2.76,6.42-.32.72-.71,1.42-1,2.13-.5,1-1,2.07-1.46,3.13a1.59,1.59,0,0,1-1.87,1.13c-.88-.14-1-.84-1-1.54m30.23,1.92a8.87,8.87,0,0,1-.35-2.11c0-1.68,0-3.36,0-5.74.31-2.61.73-5.9,1.1-9.18.29-2.5.45-5,.81-7.51s.87-4.69,1.33-7c.16-.78.41-1.55.56-2.33a16.48,16.48,0,0,1,.34-2.25q1.74-4.8,3.63-9.55a12.7,12.7,0,0,1,3.09-4.47,2.67,2.67,0,0,1,4.11.49c2.71,4.34,1.92,8.89,1,13.46a6.78,6.78,0,0,0-.3,1c-.33,4.42-2.07,8.51-3.15,12.74a52.74,52.74,0,0,1-3,7.35c-.06.14-.17.27-.24.41-1,2.45-2.05,4.9-3.1,7.34-.22.51-.53,1-.79,1.46a12.47,12.47,0,0,0-1.42,2.73c-.42,1.64-2,2.23-2.82,3.48,0,.05-.72-.15-.77-.33"/></g></g><rect id="_スライス_" data-name="&lt;スライス&gt;" class="cls-1" x="456" y="402" width="443" height="109"/></svg>